<?xml version="1.0" encoding="UTF-8" standalone="no"?><!DOCTYPE svg PUBLIC "-//W3C//DTD SVG 1.1//EN" "http://www.w3.org/Graphics/SVG/1.1/DTD/svg11.dtd"><svg width="100%" height="100%" viewBox="0 0 591 591" version="1.1" xmlns="http://www.w3.org/2000/svg" xmlns:xlink="http://www.w3.org/1999/xlink" xml:space="preserve" xmlns:serif="http://www.serif.com/" style="fill-rule:evenodd;clip-rule:evenodd;stroke-linejoin:round;stroke-miterlimit:2;"><rect x="0" y="0" width="590.551" height="590.551" style="fill:#1d1d1d;"/><path d="M436.123,381.692c-23.647,40.205 -62.297,69.369 -107.447,81.077c-93.957,24.364 -190.019,-32.137 -214.383,-126.094c-11.708,-45.15 -5,-93.102 18.647,-133.306l26.364,15.506c-19.535,33.213 -25.076,72.825 -15.404,110.123c20.127,77.617 99.482,124.291 177.099,104.164c37.298,-9.672 69.226,-33.764 88.761,-66.976l26.364,15.506Zm-281.696,-172.833c23.647,-40.205 62.297,-69.369 107.447,-81.077c93.957,-24.364 190.019,32.137 214.383,126.094c11.708,45.15 5,93.102 -18.647,133.306l-26.364,-15.506c19.535,-33.213 25.076,-72.825 15.404,-110.123c-20.127,-77.617 -99.482,-124.291 -177.099,-104.164c-37.298,9.672 -69.226,33.764 -88.761,66.976l-26.364,-15.506Zm188.973,45.792l-27.5,81.25l-32.5,0l-19,-56.375l-17.25,0l0,-24.875l35,0l17.5,51.687l17.5,-51.687l26.25,-0Z" style="fill:#96ac98;"/></svg>