<?xml version="1.0" encoding="UTF-8" standalone="no"?><!DOCTYPE svg PUBLIC "-//W3C//DTD SVG 1.1//EN" "http://www.w3.org/Graphics/SVG/1.1/DTD/svg11.dtd"><svg width="100%" height="100%" viewBox="0 0 591 591" version="1.1" xmlns="http://www.w3.org/2000/svg" xmlns:xlink="http://www.w3.org/1999/xlink" xml:space="preserve" xmlns:serif="http://www.serif.com/" style="fill-rule:evenodd;clip-rule:evenodd;stroke-linejoin:round;stroke-miterlimit:2;"><path d="M543.187,153.629c46.119,73.521 56.809,162.934 29.169,243.964c-51.297,150.383 -217.849,229.868 -371.699,177.389c-65.044,-22.187 -120.457,-65.909 -156.643,-123.596l37.438,-22.332c30.758,49.034 77.859,86.197 133.147,105.057c130.772,44.607 272.342,-22.955 315.944,-150.78c23.494,-68.876 14.408,-144.877 -24.793,-207.37l37.438,-22.332Zm-495.823,283.294c-46.119,-73.521 -56.809,-162.934 -29.169,-243.964c51.297,-150.383 217.849,-229.868 371.699,-177.389c65.044,22.187 120.457,65.909 156.643,123.596l-37.438,22.332c-30.758,-49.034 -77.859,-86.197 -133.147,-105.057c-130.772,-44.607 -272.342,22.955 -315.944,150.78c-23.494,68.876 -14.408,144.877 24.793,207.37l-37.438,22.332Zm340.788,-259.757c6.692,-0 13.11,2.658 17.843,7.391c4.732,4.732 7.391,11.15 7.391,17.843l0,186.021c0,6.621 -2.63,12.972 -7.312,17.654c-4.682,4.682 -11.032,7.312 -17.654,7.312l-184.073,0c-7.209,0 -14.123,-2.864 -19.22,-7.961c-5.097,-5.097 -7.961,-12.011 -7.961,-19.22l-0,-175.069c0,-18.761 15.209,-33.97 33.97,-33.97l177.017,-0Zm-82.139,107.675l-21.523,-0l59.055,118.11l59.055,-118.11l-21.523,0l-37.532,75.064l-37.532,-75.064Z" style="fill:#009bff;"/></svg>